<?xml version="1.0" standalone="no"?>
<!DOCTYPE svg PUBLIC "-//W3C//DTD SVG 1.1//EN" "http://www.w3.org/Graphics/SVG/1.1/DTD/svg11.dtd" >
<svg xmlns="http://www.w3.org/2000/svg">
<metadata>
<json>
<![CDATA[
{
	"fontFamily": "icomoon",
	"majorVersion": 1,
	"minorVersion": 0,
	"version": "Version 1.0",
	"fontId": "icomoon",
	"psName": "icomoon",
	"subFamily": "Regular",
	"fullName": "icomoon",
	"description": "Font generated by IcoMoon."
}
]]>
</json>
</metadata>
<defs>
<font id="icomoon" horiz-adv-x="1024">
<font-face units-per-em="1024" ascent="960" descent="-64" />
<missing-glyph horiz-adv-x="1024" />
<glyph unicode="&#x20;" horiz-adv-x="512" d="" />
<glyph unicode="&#xe7fd;" glyph-name="person" data-tags="person" d="M512 297.918c170.667 0 512-83.836 512-254.503v-128.749h-1024v128.749c0 170.667 341.333 254.503 512 254.503zM512 426.667c-140.725 0-254.503 113.778-254.503 254.503s113.778 257.497 254.503 257.497 254.503-116.772 254.503-257.497-113.778-254.503-254.503-254.503z" />
<glyph unicode="&#xe900;" glyph-name="add-circle" data-tags="add-circle" d="M769.201 397.521v100.959h-206.723v206.723h-100.959v-206.723h-206.723v-100.959h206.723v-206.723h100.959v206.723h206.723zM512 960c283.643 0 512-228.357 512-512s-228.357-512-512-512-512 228.357-512 512 228.357 512 512 512z" />
<glyph unicode="&#xe901;" glyph-name="announcement" data-tags="announcement" d="M562.479 294.16v103.361h-100.959v-103.361h100.959zM562.479 498.479v307.681h-100.959v-307.681h100.959zM923.043 960c55.285 0 100.957-45.671 100.957-100.959v-615.361c0-55.287-45.671-103.361-100.957-103.361h-718.723l-204.319-204.319v923.043c0 55.287 45.671 100.959 100.959 100.959h822.084z" />
<glyph unicode="&#xe902;" glyph-name="arrow-down-circle" data-tags="arrow-down-circle" d="M512 344.639l204.319 206.723h-408.637zM512 960c283.643 0 512-228.357 512-512s-228.357-512-512-512-512 228.357-512 512 228.357 512 512 512z" />
<glyph unicode="&#xe903;" glyph-name="arrow-right-circle" data-tags="arrow-right-circle" d="M615.361 448l-206.723 204.319v-408.637zM0 448c0 283.643 228.357 512 512 512s512-228.357 512-512-228.357-512-512-512-512 228.357-512 512z" />
<glyph unicode="&#xe904;" glyph-name="calendar" data-tags="calendar" horiz-adv-x="878" d="M194.286 473.143h244.571v-244.571h-244.571v244.571zM779.429 34.286v534.857h-681.143v-534.857h681.143zM779.429 813.714c25.905 0 48.762-9.905 68.571-29.714s29.714-42.667 29.714-68.571v-681.143c0-25.905-9.905-48.762-29.714-68.571s-42.667-29.714-68.571-29.714h-681.143c-27.429 0-50.667 9.905-69.714 29.714s-28.571 42.667-28.571 68.571v681.143c0 25.905 9.524 48.762 28.571 68.571s42.286 29.714 69.714 29.714h48v98.286h98.286v-98.286h388.571v98.286h98.286v-98.286h48z" />
<glyph unicode="&#xe905;" glyph-name="call" data-tags="call" d="M282.453 499.627c61.44-120.747 160.427-219.307 281.173-281.173l93.867 93.867c11.52 11.52 28.587 15.36 43.52 10.24 47.787-15.787 99.413-24.32 152.32-24.32 23.467 0 42.667-19.2 42.667-42.667v-148.907c0-23.467-19.2-42.667-42.667-42.667-400.64 0-725.333 324.693-725.333 725.333 0 23.467 19.2 42.667 42.667 42.667h149.333c23.467 0 42.667-19.2 42.667-42.667 0-53.333 8.533-104.533 24.32-152.32 4.693-14.933 1.28-31.573-10.667-43.52l-93.867-93.867z" />
<glyph unicode="&#xe906;" glyph-name="check" data-tags="check" horiz-adv-x="1216" d="M409.6 163.2l723.2 723.2 96-96-819.2-819.2-380.8 380.8 96 96z" />
<glyph unicode="&#xe907;" glyph-name="checkbox-checked" data-tags="checkbox-checked" d="M910.223 960.001h-796.445c-63.147 0-113.777-51.2-113.777-113.777v-796.445c0-62.577 50.631-113.777 113.777-113.777h796.445c63.147 0 113.777 51.2 113.777 113.777v796.445c0 62.577-50.631 113.777-113.777 113.777zM398.223 163.556l-284.444 284.444 80.213 80.213 204.231-203.663 431.787 431.787 80.213-80.783-512.001-512.001z" />
<glyph unicode="&#xe908;" glyph-name="checkbox-unchecked" data-tags="checkbox-unchecked" d="M910.223 846.223v-796.445h-796.445v796.445h796.445zM910.223 960.001h-796.445c-62.577 0-113.777-51.2-113.777-113.777v-796.445c0-62.577 51.2-113.777 113.777-113.777h796.445c62.577 0 113.777 51.2 113.777 113.777v796.445c0 62.577-51.2 113.777-113.777 113.777z" />
<glyph unicode="&#xe909;" glyph-name="check-cycle" data-tags="check-cycle" d="M512 960c-282.624 0-512-229.376-512-512s229.376-512 512-512 512 229.376 512 512-229.376 512-512 512zM409.6 192l-256 256 72.192 72.192 183.808-183.296 388.608 388.608 72.192-72.704-460.8-460.8z" />
<glyph unicode="&#xe90a;" glyph-name="check-cycle-done" data-tags="check-cycle-done" d="M512 960c-282.624 0-512-229.376-512-512s229.376-512 512-512 512 229.376 512 512-229.376 512-512 512zM409.6 192.001l-255.999 255.999 72.192 72.192 183.807-183.296 388.608 388.608 72.192-72.704-460.8-460.8z" />
<glyph unicode="&#xe90b;" glyph-name="check-cycle-fail" data-tags="check-cycle-fail" d="M512 36.958c225.953 0 411.042 185.089 411.042 411.042s-185.089 411.042-411.042 411.042-411.042-185.089-411.042-411.042 185.089-411.042 411.042-411.042zM512 960c283.643 0 512-228.357 512-512s-228.357-512-512-512-512 228.357-512 512 228.357 512 512 512zM644.207 652.319l72.113-72.113-132.207-132.207 132.207-132.207-72.113-72.113-132.207 132.207-132.207-132.207-72.113 72.113 132.207 132.207-132.207 132.207 72.113 72.113 132.207-132.207z" />
<glyph unicode="&#xe90c;" glyph-name="clock" data-tags="clock" d="M538.441 705.201v-269.221l230.761-137.015-38.46-64.901-269.221 163.455v307.681h76.92zM512 36.957c225.953 0 411.041 185.089 411.041 411.043s-185.089 411.041-411.041 411.041-411.041-185.089-411.041-411.041 185.089-411.041 411.041-411.041zM512 960c283.643 0 512-228.357 512-512s-228.357-512-512-512-512 228.357-512 512 228.357 512 512 512z" />
<glyph unicode="&#xe90d;" glyph-name="close" data-tags="close" d="M988.8 828.8l-380.8-380.8 380.8-380.8-96-96-380.8 380.8-380.8-380.8-96 96 380.8 380.8-380.8 380.8 96 96 380.8-380.8 380.8 380.8z" />
<glyph unicode="&#xe90e;" glyph-name="copy" data-tags="copy" d="M859.507 29.685v651.437h-509.821v-651.437h509.821zM859.507 772.629c50.111 0 93.685-41.396 93.685-91.505v-651.439c0-50.111-43.575-93.685-93.685-93.685h-509.821c-50.111 0-93.685 43.575-93.685 93.685v651.437c0 50.111 43.573 91.507 93.685 91.507h509.821zM720.068 960v-93.685h-557.753v-651.439h-91.507v651.437c0 50.111 41.396 93.685 91.507 93.685h557.753z" />
<glyph unicode="&#xe90f;" glyph-name="delete" data-tags="delete" horiz-adv-x="864" d="M824 904v-114.656h-794.656v114.656h197.344l58.656 56h282.656l58.656-56h197.344zM85.344 50.656v682.656h682.656v-682.656c0-30.208-11.552-56.896-34.656-80s-49.792-34.656-80-34.656h-453.344c-30.208 0-56.896 11.552-80 34.656s-34.656 49.792-34.656 80z" />
<glyph unicode="&#xe910;" glyph-name="down" data-tags="down" horiz-adv-x="1376" d="M160 922.656l522.656-522.656 522.656 522.656 160-160-682.656-682.656-682.656 682.656z" />
<glyph unicode="&#xe911;" glyph-name="download" data-tags="download" d="M91.679 86.92h840.637v-121.301h-840.637v121.301zM932.321 628.54l-420.321-420.321-420.321 420.321h239.779v361.080h361.080v-361.080h239.779z" />
<glyph unicode="&#xe912;" glyph-name="edit" data-tags="edit" d="M1008 730.656l-104-104-213.344 213.344 104 104c10.656 10.656 24 16 40 16s29.344-5.344 40-16l133.344-133.344c10.656-10.656 16-24 16-40s-5.344-29.344-16-40zM0 149.344l629.344 629.344 213.344-213.344-629.344-629.344h-213.344v213.344z" />
<glyph unicode="&#xe913;" glyph-name="email" data-tags="email" horiz-adv-x="1141" d="M570.667 503.729l453.935 284.051h-907.868l453.935-284.051zM1024.601 108.185v565.427l-453.935-281.375-453.935 281.375v-565.427h907.868zM1024.601 901.917c30.071 0 56.192-11.5 78.299-34.499s33.193-49.565 33.193-79.637v-679.564c0-30.071-11.055-56.639-33.193-79.637s-48.228-34.499-78.299-34.499h-907.868c-30.071 0-56.192 11.5-78.299 34.499s-33.193 49.567-33.193 79.637v679.564c0 30.071 11.055 56.637 33.193 79.637s48.228 34.499 78.299 34.499h907.868z" />
<glyph unicode="&#xe914;" glyph-name="email-black" data-tags="email-black" horiz-adv-x="1184" d="M1062.519 684.248v119.513l-475.278-297.394-475.274 297.394v-119.513l475.274-294.617zM1062.519 923.274c63.924 0 116.734-55.588 116.734-119.515v-711.527c0-63.926-52.808-119.513-116.734-119.513h-950.553c-63.926 0-116.736 55.588-116.736 119.513v711.527c0 63.926 52.808 119.515 116.736 119.515h950.553z" />
<glyph unicode="&#xe915;" glyph-name="email-sent" data-tags="email-sent" horiz-adv-x="1269" d="M1178.799 414.649l-277.705-277.705-122.193 111.083-77.76-77.76 199.955-188.841 355.467 355.467-77.76 77.76zM623.38 203.591l122.193 122.193c8.184 9.244 20.077 15.043 33.327 15.043s25.145-5.803 33.283-14.997l88.911-77.807 222.171 222.169v333.251c-0.447 30.491-13.111 57.943-33.307 77.739-18.403 20.543-44.995 33.389-74.579 33.389-1.127 0-2.245-0.020-3.355-0.053l-888.507 0.005c-0.955 0.031-2.069 0.051-3.193 0.051-29.589 0-56.176-12.857-74.48-33.279-20.295-19.915-32.961-47.363-33.405-77.772l-0.001-666.587c0.447-30.491 13.111-57.943 33.307-77.739 18.403-20.543 44.995-33.391 74.579-33.391 1.127 0 2.245 0.020 3.355 0.053l610.795-0.005-111.083 111.083c-9.244 8.184-15.043 20.077-15.043 33.327s5.803 25.145 14.997 33.283zM123.504 692.355v111.081l444.332-277.707 444.332 277.707v-111.081l-444.332-277.705z" />
<glyph unicode="&#xe916;" glyph-name="error" data-tags="error" d="M562.479 397.521v307.681h-100.959v-307.681h100.959zM562.479 190.799v103.361h-100.959v-103.361h100.959zM512 960c283.643 0 512-228.357 512-512s-228.357-512-512-512-512 228.357-512 512 228.357 512 512 512z" />
<glyph unicode="&#xe917;" glyph-name="excel" data-tags="excel" horiz-adv-x="768" d="M746.597 710.336c8.929-8.929 17.859-21.431 25.003-37.465s8.929-32.109 8.929-44.609v-588.965c0-12.501-3.573-25.003-14.286-33.894-8.929-8.929-19.646-14.286-33.894-14.286h-685.329c-14.286 0-25.003 5.359-33.894 14.286-10.715 8.929-14.286 21.431-14.286 33.894v817.408c0 12.501 3.573 25.003 14.286 33.894 8.929 8.929 19.646 14.286 33.894 14.286h456.886c14.286 0 28.573-3.573 44.609-10.715s30.323-14.286 39.251-23.219zM519.94 835.274v-190.977h192.763c-3.573 8.929-7.145 16.073-12.501 19.646l-158.831 160.617c-3.573 3.573-10.715 7.145-21.431 10.715zM716.236 57.156v521.141h-212.369c-14.286 0-25.003 5.359-33.894 14.286-10.715 8.929-14.286 21.431-14.286 35.681v210.583h-392.632v-781.692zM216.528 174.949v-53.539h142.796v53.539h-37.465l51.753 82.113c1.786 3.573 3.573 5.359 5.359 8.929s3.573 5.359 3.573 7.145c1.786 1.786 1.786 1.786 1.786 1.786h1.786c0-1.786 1.786-3.573 1.786-5.359 1.786 0 1.786-1.786 3.573-3.573 0-1.786 1.786-1.786 1.786-3.573 1.786-1.786 3.573-3.573 3.573-5.359l55.324-82.113h-39.251v-53.539h148.115v53.539h-33.894l-98.15 139.224 99.934 144.544h33.894v55.324h-142.796v-55.324h37.465l-51.753-80.327c-1.786-3.573-3.573-5.359-5.359-8.929s-3.573-5.359-5.359-7.145v-1.786h-1.786c0 1.786 0 3.573-1.786 5.359-1.786 3.573-5.359 7.145-8.929 12.501l-53.539 80.327h37.465v55.324h-146.328v-55.324h33.894l96.362-139.224-98.15-144.544z" />
<glyph unicode="&#xe918;" glyph-name="exit" data-tags="exit" d="M411.84 259.712l73.952-73.952 262.208 262.208-262.208 262.208-73.952-73.952 135.296-135.84h-507.136v-104.896h507.136l-135.296-135.84zM879.104 920h-734.24c-58.208 0-104.896-47.2-104.896-104.896v-209.76h104.896v209.792h734.24v-734.24h-734.24v209.792h-104.896v-209.792c0-57.696 46.688-104.896 104.896-104.896h734.24c57.696 0 104.896 47.2 104.896 104.896v734.24c0 57.696-47.2 104.896-104.896 104.896z" />
<glyph unicode="&#xe919;" glyph-name="filter" data-tags="filter" d="M170.667 392v112h682.667v-112h-682.667zM0 789.333h1024v-114.667h-1024v114.667zM397.333 106.667v114.667h229.333v-114.667h-229.333z" />
<glyph unicode="&#xe91a;" glyph-name="help" data-tags="help" d="M668.244 486.46c28.845 28.845 48.075 69.709 48.075 115.38 0 112.977-91.343 204.319-204.319 204.319s-204.319-91.343-204.319-204.319h100.957c0 55.285 48.075 103.361 103.361 103.361s103.361-48.075 103.361-103.361c0-28.845-12.019-52.883-31.249-72.113l-62.499-64.901c-36.056-38.46-60.093-88.939-60.093-144.225v-26.441h100.959c0 76.92 24.039 105.765 60.095 144.225zM562.479 89.84v100.959h-100.959v-100.959h100.959zM512 960c283.643 0 512-228.357 512-512s-228.357-512-512-512-512 228.357-512 512 228.357 512 512 512z" />
<glyph unicode="&#xe91b;" glyph-name="id-card" data-tags="id-card" horiz-adv-x="981" d="M797.628 39.115v71.943c0 103.117-203.843 158.276-306.961 158.276s-306.961-55.159-306.961-158.276v-71.943h613.924zM490.667 653.039c-83.935 0-153.481-69.545-153.481-153.481s69.545-153.481 153.481-153.481 153.481 69.547 153.481 153.481-69.547 153.481-153.481 153.481zM490.667 856.883c-28.779 0-50.363-21.584-50.363-50.363s21.584-52.76 50.363-52.76 50.363 23.983 50.363 52.76-21.584 50.363-50.363 50.363zM847.991 856.883c55.157 0 103.117-47.964 103.117-103.117v-714.645c0-55.159-47.964-103.119-103.117-103.119h-714.647c-55.157 0-103.117 47.964-103.117 103.117v714.647c0 55.159 47.964 103.117 103.117 103.117h213.433c21.584 59.953 76.74 103.117 143.889 103.117s122.305-43.165 143.891-103.117h213.433z" />
<glyph unicode="&#xe91c;" glyph-name="light" data-tags="light" horiz-adv-x="752" d="M222.4-12.8c0-28.16 23.040-51.2 51.2-51.2h204.8c28.16 0 51.2 23.040 51.2 51.2v51.2h-307.2v-51.2zM376 960c-197.632 0-358.4-160.768-358.4-358.4 0-121.856 60.928-228.864 153.6-293.888v-115.712c0-28.16 23.040-51.2 51.2-51.2h307.2c28.16 0 51.2 23.040 51.2 51.2v115.712c92.672 65.024 153.6 172.032 153.6 293.888 0 197.632-160.768 358.4-358.4 358.4zM521.92 391.68l-43.52-30.72v-117.76h-204.8v117.76l-43.52 30.72c-69.12 48.128-110.080 126.464-110.080 209.92 0 141.312 114.688 256 256 256s256-114.688 256-256c0-83.456-40.96-161.792-110.080-209.92z" />
<glyph unicode="&#xe91d;" glyph-name="log" data-tags="log" horiz-adv-x="1216" d="M67.2 924.8h1094.4v-134.4h-1094.4v134.4zM67.2 243.2v137.6h1094.4v-137.6h-1094.4zM1161.6 652.8v-137.6h-1094.4v137.6h1094.4zM752 105.6v-134.4h-684.8v134.4h684.8z" />
<glyph unicode="&#xe91e;" glyph-name="mars" data-tags="mars" horiz-adv-x="878" d="M841.143 886.857c20 0 36.571-16.571 36.571-36.571v-237.714c0-10.286-8-18.286-18.286-18.286h-36.571c-10.286 0-18.286 8-18.286 18.286v149.714l-218.286-218.857c45.143-56 72-127.429 72-205.143 0-181.714-147.429-329.143-329.143-329.143s-329.143 147.429-329.143 329.143 147.429 329.143 329.143 329.143c77.714 0 149.143-26.857 205.143-72l218.286 218.286h-149.143c-10.286 0-18.286 8-18.286 18.286v36.571c0 10.286 8 18.286 18.286 18.286h237.714zM329.143 82.286c141.143 0 256 114.857 256 256s-114.857 256-256 256-256-114.857-256-256 114.857-256 256-256z" />
<glyph unicode="&#xe91f;" glyph-name="menu" data-tags="menu" horiz-adv-x="1664" d="M64 960h1536v-172h-1536v172zM64 364v168h1536v-168h-1536zM64-64v172h1536v-172h-1536z" />
<glyph unicode="&#xe920;" glyph-name="minus-square" data-tags="minus-square" horiz-adv-x="800" d="M655.984 466.288v-36.576c0-10.272-8-18.272-18.272-18.272h-475.424c-10.272 0-18.272 8-18.272 18.272v36.576c0 10.272 8 18.272 18.272 18.272h475.424c10.272 0 18.272-8 18.272-18.272zM729.136 210.288v475.424c0 50.272-41.152 91.424-91.424 91.424h-475.424c-50.272 0-91.424-41.152-91.424-91.424v-475.424c0-50.272 41.152-91.424 91.424-91.424h475.424c50.272 0 91.424 41.152 91.424 91.424zM802.288 685.712v-475.424c0-90.848-73.728-164.576-164.576-164.576h-475.424c-90.848 0-164.576 73.728-164.576 164.576v475.424c0 90.848 73.728 164.576 164.576 164.576h475.424c90.848 0 164.576-73.728 164.576-164.576z" />
<glyph unicode="&#xe921;" glyph-name="navigate-down" data-tags="navigate-down" horiz-adv-x="1040" d="M1032 643.84l-120.32 120.32-391.68-390.826-391.68 390.826-120.32-120.32 512-512z" />
<glyph unicode="&#xe922;" glyph-name="navigate-left" data-tags="navigate-left" horiz-adv-x="736" d="M563.84 960l120.32-120.32-390.826-391.68 390.826-391.68-120.32-120.32-512 512z" />
<glyph unicode="&#xe923;" glyph-name="navigate-right" data-tags="navigate-right" horiz-adv-x="736" d="M172.16 960l-120.32-120.32 390.826-391.68-390.826-391.68 120.32-120.32 512 512z" />
<glyph unicode="&#xe924;" glyph-name="navigate-up" data-tags="navigate-up" horiz-adv-x="1040" d="M1032 252.16l-120.32-120.32-391.68 390.826-391.68-390.826-120.32 120.32 512 512z" />
<glyph unicode="&#xe925;" glyph-name="no-avatar" data-tags="no-avatar" d="M511.999 838.401c74.239 0 134.4-60.16 134.4-134.4s-60.16-134.4-134.4-134.4-134.4 60.16-134.4 134.4 60.16 134.4 134.4 134.4zM511.999 262.401c190.080 0 390.4-93.439 390.4-134.4v-70.399h-780.799v70.399c0 40.96 200.32 134.4 390.4 134.4zM511.999 960c-141.439 0-256-114.559-256-256s114.559-256 256-256 256 114.559 256 256-114.559 256-256 256zM511.999 384c-170.88 0-511.999-85.759-511.999-256v-192h1024v192c0 170.239-341.119 256-511.999 256z" />
<glyph unicode="&#xe926;" glyph-name="people" data-tags="people" horiz-adv-x="1632" d="M1091.2 380.8c59.744 0 124.8-8.544 195.2-25.6s135.456-44.8 195.2-83.2c59.744-38.4 89.6-82.144 89.6-131.2v-169.6h-409.6v169.6c0 93.856-44.8 172.8-134.4 236.8 14.944 2.144 36.256 3.2 64 3.2zM547.2 380.8c59.744 0 124.8-8.544 195.2-25.6s134.944-44.8 193.6-83.2c58.656-38.4 88-82.144 88-131.2v-169.6h-956.8v169.6c0 49.056 29.856 92.8 89.6 131.2s124.8 66.144 195.2 83.2c70.4 17.056 135.456 25.6 195.2 25.6zM547.2 515.2c-55.456 0-103.456 20.256-144 60.8s-60.8 88.544-60.8 144c0 55.456 20.256 103.456 60.8 144s88.544 60.8 144 60.8c55.456 0 102.944-20.256 142.4-60.8s59.2-88.544 59.2-144c0-55.456-19.744-103.456-59.2-144s-86.944-60.8-142.4-60.8zM1091.2 515.2c-55.456 0-103.456 20.256-144 60.8s-60.8 88.544-60.8 144c0 55.456 20.256 103.456 60.8 144s88.544 60.8 144 60.8c55.456 0 103.456-20.256 144-60.8s60.8-88.544 60.8-144c0-55.456-20.256-103.456-60.8-144s-88.544-60.8-144-60.8z" />
<glyph unicode="&#xe927;" glyph-name="place" data-tags="place" d="M512 874.667c-165.12 0-298.667-133.547-298.667-298.667 0-224 298.667-554.667 298.667-554.667s298.667 330.667 298.667 554.667c0 165.12-133.547 298.667-298.667 298.667zM512 469.333c-58.88 0-106.667 47.787-106.667 106.667s47.787 106.667 106.667 106.667 106.667-47.787 106.667-106.667-47.787-106.667-106.667-106.667z" />
<glyph unicode="&#xe928;" glyph-name="play-arrow" data-tags="play-arrow" d="M109.96 960l804.080-512-804.080-512v1024z" />
<glyph unicode="&#xe929;" glyph-name="plus-square" data-tags="plus-square" horiz-adv-x="800" d="M655.984 466.288v-36.576c0-10.272-8-18.272-18.272-18.272h-201.152v-201.152c0-10.272-8-18.272-18.272-18.272h-36.576c-10.272 0-18.272 8-18.272 18.272v201.152h-201.152c-10.272 0-18.272 8-18.272 18.272v36.576c0 10.272 8 18.272 18.272 18.272h201.152v201.152c0 10.272 8 18.272 18.272 18.272h36.576c10.272 0 18.272-8 18.272-18.272v-201.152h201.152c10.272 0 18.272-8 18.272-18.272zM729.136 210.288v475.424c0 50.272-41.152 91.424-91.424 91.424h-475.424c-50.272 0-91.424-41.152-91.424-91.424v-475.424c0-50.272 41.152-91.424 91.424-91.424h475.424c50.272 0 91.424 41.152 91.424 91.424zM802.288 685.712v-475.424c0-90.848-73.728-164.576-164.576-164.576h-475.424c-90.848 0-164.576 73.728-164.576 164.576v475.424c0 90.848 73.728 164.576 164.576 164.576h475.424c90.848 0 164.576-73.728 164.576-164.576z" />
<glyph unicode="&#xe92a;" glyph-name="replay" data-tags="replay" horiz-adv-x="1189" d="M594.499 753.77c225.42 0 410.081-182.269 410.081-407.689s-184.661-410.081-410.081-410.081-410.081 184.661-410.081 410.081h103.114c0-170.267 136.693-306.97 306.97-306.97s306.97 136.693 306.97 306.97-136.693 306.97-306.97 306.97v-206.245l-256.597 256.597 256.597 256.597v-206.245z" />
<glyph unicode="&#xe92b;" glyph-name="search" data-tags="search" d="M370.656 333.344c71.104 0 131.552 24.896 181.344 74.656s74.656 110.208 74.656 181.344c0 71.104-24.896 131.552-74.656 181.344s-110.208 74.656-181.344 74.656c-71.104 0-131.552-24.896-181.344-74.656s-74.656-110.208-74.656-181.344c0-71.104 24.896-131.552 74.656-181.344s110.208-74.656 181.344-74.656zM712 333.344l282.656-282.656-85.344-85.344-282.656 282.656v45.344l-16 16c-67.552-58.656-147.552-88-240-88-103.104 0-190.656 35.552-262.656 106.656s-108 158.208-108 261.344c0 103.104 36 190.656 108 262.656s159.552 108 262.656 108c103.104 0 190.208-36 261.344-108s106.656-159.552 106.656-262.656c0-92.448-29.344-172.448-88-240l16-16h45.344z" />
<glyph unicode="&#xe92c;" glyph-name="skype" data-tags="skype" horiz-adv-x="878" d="M670.286 352.571c0 99.429-96.571 133.714-177.714 152l-59.429 13.714c-43.429 10.286-76 17.714-76 50.857 0 30.286 32 44 82.286 44 89.714 0 91.429-65.714 146.857-65.714 37.143 0 59.429 29.143 59.429 62.286 0 65.714-109.143 108.571-217.143 108.571-98.857 0-213.714-42.857-213.714-158.857 0-96 64-130.286 147.429-150.286l83.429-20.571c50.857-12.571 82.286-18.286 82.286-54.857 0-29.143-32.571-51.429-82.857-51.429-105.714 0-111.429 88-172.571 88-40 0-57.714-28.571-57.714-60 0-70.286 107.429-127.429 236-127.429 107.429 0 219.429 53.714 219.429 169.714zM877.714 228.571c0-121.143-98.286-219.429-219.429-219.429-50.286 0-96.571 17.143-133.714 45.714-27.429-5.714-56.571-9.143-85.714-9.143-222.286 0-402.286 180-402.286 402.286 0 29.143 3.429 58.286 9.143 85.714-28.571 37.143-45.714 83.429-45.714 133.714 0 121.143 98.286 219.429 219.429 219.429 50.286 0 96.571-17.143 133.714-45.714 27.429 5.714 56.571 9.143 85.714 9.143 222.286 0 402.286-180 402.286-402.286 0-29.143-3.429-58.286-9.143-85.714 28.571-37.143 45.714-83.429 45.714-133.714z" />
<glyph unicode="&#xe92d;" glyph-name="sort-down" data-tags="sort-down" horiz-adv-x="800" d="M0 347.36h752.512l-376.256-409.696zM616.704 611.552l-240.416 261.792-240.416-261.792h480.864zM0 550.304l376.256 409.696 376.256-409.696h-752.512z" />
<glyph unicode="&#xe92e;" glyph-name="sort-none" data-tags="sort-none" horiz-adv-x="800" d="M135.84 286.080l240.416-261.792 240.416 261.792h-480.864zM752.544 347.36l-376.256-409.696-376.256 409.696h752.512zM616.704 611.552l-240.416 261.792-240.416-261.792h480.864zM0 550.304l376.256 409.696 376.256-409.696h-752.512z" />
<glyph unicode="&#xe92f;" glyph-name="sort-up" data-tags="sort-up" horiz-adv-x="800" d="M752.544 550.304h-752.512l376.256 409.696zM135.84 286.080l240.416-261.792 240.416 261.792h-480.864zM752.544 347.36l-376.256-409.696-376.256 409.696h752.512z" />
<glyph unicode="&#xe930;" glyph-name="spin3" data-tags="spin3" d="M505.856 960c-272.384 0-494.592-215.040-505.856-483.328-1.024-19.456 13.312-20.48 13.312-20.48h86.016c16.384 0 19.456 10.24 19.456 18.432 10.24 203.776 180.224 366.592 387.072 366.592 109.568 0 209.92-46.080 279.552-120.832l-59.392-58.368c-11.264-12.288-11.264-27.648 5.12-31.744l252.928-51.2c21.504-5.12 47.104 11.264 37.888 45.056l-59.392 232.448c-2.048 9.216-16.384 22.528-29.696 13.312l-66.56-61.44c-91.136 93.184-219.136 151.552-360.448 151.552zM924.672 439.808c-16.384 0-19.456-10.24-19.456-18.432-10.24-203.776-180.224-366.592-386.048-366.592-110.592 0-209.92 46.080-280.576 120.832l60.416 58.368c10.24 12.288 10.24 27.648-5.12 31.744l-253.952 51.2c-21.504 5.12-47.104-11.264-37.888-45.056l59.392-232.448c2.048-9.216 16.384-22.528 30.72-13.312l65.536 61.44c91.136-93.184 219.136-151.552 361.472-151.552 271.36 0 493.568 215.040 504.832 484.352 1.024 18.432-13.312 19.456-13.312 19.456h-86.016z" />
<glyph unicode="&#xe931;" glyph-name="spin4" data-tags="spin4" d="M509.952 960c-116.736 0-233.472-39.936-327.68-118.784v0c177.152 143.36 438.272 133.12 602.112-31.744 137.216-137.216 167.936-339.968 91.136-506.88-10.24-29.696-5.12-51.2 12.288-69.632 21.504-20.48 62.464-23.552 86.016 0 3.072 3.072 12.288 15.36 15.36 24.576 72.704 184.32 33.792 402.432-114.688 551.936-101.376 100.352-233.472 150.528-364.544 150.528zM91.136 679.424c-14.336 0-29.696-5.12-39.936-16.384-3.072-3.072-13.312-15.36-15.36-24.576-72.704-184.32-34.816-402.432 114.688-551.936 189.44-189.44 490.496-199.68 692.224-31.744v0c-177.152-143.36-438.272-133.12-603.136 31.744-137.216 137.216-166.912 340.992-91.136 506.88 11.264 29.696 6.144 51.2-12.288 69.632-11.264 11.264-27.648 17.408-45.056 16.384z" />
<glyph unicode="&#xe932;" glyph-name="stop" data-tags="stop" d="M0 960h1024v-1024h-1024v1024z" />
<glyph unicode="&#xe933;" glyph-name="tasklist" data-tags="tasklist" horiz-adv-x="864" d="M537.152 276.576v-96h-342.848v96h342.848zM779.424 34.272v534.848h-681.152v-534.848h681.152zM779.424 813.728c25.92 0 48.768-9.92 68.576-29.728s29.728-42.656 29.728-68.576v-681.152c0-25.92-9.92-48.768-29.728-68.576s-42.656-29.728-68.576-29.728h-681.152c-27.424 0-50.656 9.92-69.728 29.728s-28.576 42.656-28.576 68.576v681.152c0 25.92 9.536 48.768 28.576 68.576s42.272 29.728 69.728 29.728h48v98.272h98.272v-98.272h388.576v98.272h98.272v-98.272h48zM683.424 473.152v-98.272h-489.152v98.272h489.152z" />
<glyph unicode="&#xe934;" glyph-name="tasks" data-tags="tasks" horiz-adv-x="1600" d="M909.728 667.424h-877.728v-146.272h877.728v146.272zM909.728 960h-877.728v-146.272h877.728v146.272zM32 228.576h585.152v146.272h-585.152v-146.272zM1458.272 557.728l109.728-109.728-511.264-512-329.888 329.152 109.728 109.728 220.16-219.424 401.568 402.272z" />
<glyph unicode="&#xe935;" glyph-name="transfer" data-tags="transfer" horiz-adv-x="1072" d="M1048 448l-215.579 215.579v-161.684h-808.421v-107.789h808.421v-161.684z" />
<glyph unicode="&#xe936;" glyph-name="transferto" data-tags="transferto" d="M1024 448l-1024-512v1024z" />
<glyph unicode="&#xe937;" glyph-name="triangle" data-tags="triangle" d="M0-64h1024v1024z" />
<glyph unicode="&#xe938;" glyph-name="triangle-up" data-tags="triangle-up" d="M1024 960h-1024v-1024z" />
<glyph unicode="&#xe939;" glyph-name="venus" data-tags="venus" horiz-adv-x="667" d="M662.508 617.545c0-165.901-125.548-302.659-286.965-320.593v-145.725h125.548c10.089 0 17.936-7.847 17.936-17.936v-35.871c0-10.089-7.847-17.936-17.936-17.936h-125.548v-125.548c0-10.089-7.847-17.936-17.936-17.936h-35.871c-10.089 0-17.936 7.847-17.936 17.936v125.548h-125.548c-10.089 0-17.936 7.847-17.936 17.936v35.871c0 10.089 7.847 17.936 17.936 17.936h125.548v145.725c-169.827 18.495-299.856 169.265-285.845 346.937 12.331 152.451 133.395 277.437 284.724 294.252 195.047 21.859 359.828-130.031 359.828-320.595zM88.575 617.545c0-138.439 112.657-251.096 251.096-251.096s251.096 112.657 251.096 251.096-112.657 251.096-251.096 251.096-251.096-112.657-251.096-251.096z" />
<glyph unicode="&#xe93a;" glyph-name="warning" data-tags="warning" d="M557.753 331.437v187.371h-91.505v-187.371h91.505zM557.753 146.247v93.685h-91.505v-93.685h91.505zM0 6.809l512 882.383 512-882.383h-1024z" />
<glyph unicode="&#xe93b;" glyph-name="remove-circle" data-tags="remove-circle" d="M769.201 397.521v100.959h-514.404v-100.959h514.404zM512 960c283.643 0 512-228.357 512-512s-228.357-512-512-512-512 228.357-512 512 228.357 512 512 512z" />
<glyph unicode="&#xe93c;" glyph-name="radio-button-checked" data-tags="radio-button-checked" d="M512 36.957c225.953 0 411.041 185.089 411.041 411.043s-185.089 411.041-411.041 411.041-411.041-185.089-411.041-411.041 185.089-411.041 411.041-411.041zM512 960c283.643 0 512-228.357 512-512s-228.357-512-512-512-512 228.357-512 512 228.357 512 512 512zM512 705.201c141.821 0 257.201-115.38 257.201-257.201s-115.38-257.201-257.201-257.201-257.201 115.38-257.201 257.201 115.38 257.201 257.201 257.201z" />
<glyph unicode="&#xe93d;" glyph-name="radio-button-unchecked" data-tags="radio-button-unchecked" d="M512 36.957c225.953 0 411.041 185.089 411.041 411.043s-185.089 411.041-411.041 411.041-411.041-185.089-411.041-411.041 185.089-411.041 411.041-411.041zM512 960c283.643 0 512-228.357 512-512s-228.357-512-512-512-512 228.357-512 512 228.357 512 512 512z" />
<glyph unicode="&#xe93e;" glyph-name="books" data-tags="books, library, archive" horiz-adv-x="1152" d="M234.706 850.359h-201.18c-18.441 0-33.53-15.088-33.53-33.53v-737.659c0-18.441 15.088-33.53 33.53-33.53h201.18c18.441 0 33.53 15.088 33.53 33.53v737.659c0 18.441-15.088 33.53-33.53 33.53zM201.176 649.18h-134.12v67.060h134.12v-67.060zM570.005 850.359h-201.18c-18.441 0-33.53-15.088-33.53-33.53v-737.659c0-18.441 15.088-33.53 33.53-33.53h201.18c18.441 0 33.53 15.088 33.53 33.53v737.659c0 18.441-15.088 33.53-33.53 33.53zM536.475 649.18h-134.12v67.060h134.12v-67.060zM801.663 798.514l-179.662-90.525c-16.467-8.297-23.152-28.561-14.856-45.031l301.746-598.874c8.297-16.469 28.561-23.155 45.031-14.856l179.662 90.522c16.467 8.299 23.152 28.563 14.856 45.029l-301.746 598.876c-8.299 16.469-28.563 23.157-45.031 14.858z" />
<glyph unicode="&#xf291;" glyph-name="shopping-basket" data-tags="shopping-basket" horiz-adv-x="1170" d="M1097.143 512c40.571 0 73.143-32.571 73.143-73.143s-32.571-73.143-73.143-73.143h-8.571l-65.714-378.286c-6.286-34.857-36.571-60.571-72-60.571h-731.429c-35.429 0-65.714 25.714-72 60.571l-65.714 378.286h-8.571c-40.571 0-73.143 32.571-73.143 73.143s32.571 73.143 73.143 73.143h1024zM277.143 54.857c20 1.714 35.429 19.429 33.714 39.429l-18.286 237.714c-1.714 20-19.429 35.429-39.429 33.714s-35.429-19.429-33.714-39.429l18.286-237.714c1.714-18.857 17.714-33.714 36.571-33.714h2.857zM512 91.428v237.714c0 20-16.571 36.571-36.571 36.571s-36.571-16.571-36.571-36.571v-237.714c0-20 16.571-36.571 36.571-36.571s36.571 16.571 36.571 36.571zM731.429 91.428v237.714c0 20-16.571 36.571-36.571 36.571s-36.571-16.571-36.571-36.571v-237.714c0-20 16.571-36.571 36.571-36.571s36.571 16.571 36.571 36.571zM932.571 88.571l18.286 237.714c1.714 20-13.714 37.714-33.714 39.429s-37.714-13.714-39.429-33.714l-18.286-237.714c-1.714-20 13.714-37.714 33.714-39.429h2.857c18.857 0 34.857 14.857 36.571 33.714zM272 784l-53.143-235.429h-75.429l57.714 252c14.857 66.857 73.714 113.714 142.286 113.714h95.429c0 20 16.571 36.571 36.571 36.571h219.429c20 0 36.571-16.571 36.571-36.571h95.429c68.571 0 127.429-46.857 142.286-113.714l57.714-252h-75.429l-53.143 235.429c-8 33.714-37.143 57.143-71.429 57.143h-95.429c0-20-16.571-36.571-36.571-36.571h-219.429c-20 0-36.571 16.571-36.571 36.571h-95.429c-34.286 0-63.429-23.429-71.429-57.143z" />
</font>
</defs>
</svg>
